# xmcd CD database file
# Copyright (C) 1995 Ti Kan
#
# Track frame offsets:
#	150
#	15380
#	31110
#	47187
#	59262
#	85850
#	104487
#	135390
#	148437
#	171470
#	184917
#	203875
#	222637
#
# Disc length: 3085 seconds
#
# Revision: 1
# Processed by: cddbd v1.4b41PL2 Copyright (c) Steve Scherf et al.
# Submitted via: NotifyCDPlayer(CDDB) 1.60beta5_freedb
#
DISCID=c30c0b0d
DTITLE=Sugar Ray and the Bluetones - Rockin' Sugar Daddy
DYEAR=1900
DGENRE=
TTITLE0=Rockin' Sugar Daddy
TTITLE1=I Got Love If You Want It
TTITLE2=She's Blued and Broken
TTITLE3=Call Me Lonesome
TTITLE4=Room 531
TTITLE5=The Picture
TTITLE6=It's My Live, Baby
TTITLE7=Off the Wall
TTITLE8=Lonesome Cabin
TTITLE9=Warm Hearted Woman
TTITLE10=You Can't Be the One for Me
TTITLE11=Low Down Lady
TTITLE12=Walk Hand in Hand
EXTD=Severn Records
EXTT0=
EXTT1=
EXTT2=
EXTT3=
EXTT4=
EXTT5=
EXTT6=
EXTT7=
EXTT8=
EXTT9=
EXTT10=
EXTT11=
EXTT12=
PLAYORDER=
